<?xml version="1.0" encoding="UTF-8" standalone="no"?>
<!DOCTYPE svg PUBLIC "-//W3C//DTD SVG 1.1//EN" "http://www.w3.org/Graphics/SVG/1.1/DTD/svg11.dtd">
<svg width="100%" height="100%" viewBox="0 0 211 150" version="1.1" xmlns="http://www.w3.org/2000/svg" xmlns:xlink="http://www.w3.org/1999/xlink" xml:space="preserve" xmlns:serif="http://www.serif.com/" style="fill-rule:evenodd;clip-rule:evenodd;stroke-linejoin:round;stroke-miterlimit:2;">
    <g transform="matrix(1,0,0,1,-454,0)">
        <g id="flag_system" transform="matrix(1.05,0,0,1.875,454.589,1.42109e-14)">
            <rect x="0" y="0" width="200" height="80" style="fill:none;"/>
            <clipPath id="_clip1">
                <rect x="0" y="0" width="200" height="80"/>
            </clipPath>
            <g clip-path="url(#_clip1)">
                <g id="brackground" transform="matrix(0.952381,0,0,0.533333,-432.942,7.54952e-15)">
                    <rect x="454.589" y="-0" width="210" height="150" style="fill:rgb(1,59,166);"/>
                </g>
                <g transform="matrix(0.952381,0,0,0.533333,-429.831,-4.83997)">
                    <path d="M562.513,27.999C558.398,27.545 554.246,27.545 550.131,27.999L549.069,36.673C545.59,37.205 542.181,38.119 538.903,39.397L533.646,32.417C529.855,34.081 526.259,36.157 522.923,38.608L526.339,46.65C523.593,48.85 521.098,51.346 518.897,54.092L510.855,50.676C508.404,54.012 506.328,57.608 504.664,61.399L511.644,66.656C510.366,69.934 509.452,73.343 508.92,76.821L500.247,77.884C499.792,81.999 499.792,86.151 500.247,90.266L508.92,91.328C509.452,94.807 510.366,98.216 511.644,101.494L504.664,106.751C506.328,110.542 508.404,114.138 510.855,117.474L518.897,114.058C521.098,116.804 523.593,119.299 526.339,121.5L522.923,129.542C526.259,131.993 529.855,134.069 533.646,135.733L538.903,128.753C542.181,130.031 545.59,130.945 549.069,131.477L550.131,140.15C554.246,140.605 558.398,140.605 562.513,140.15L563.576,131.477C567.054,130.945 570.463,130.031 573.741,128.753L578.998,135.733C582.789,134.069 586.385,131.993 589.721,129.542L586.305,121.5C589.051,119.299 591.547,116.804 593.747,114.058L601.789,117.474C604.24,114.138 606.316,110.542 607.98,106.751L601,101.494C602.278,98.216 603.192,94.807 603.724,91.328L612.398,90.266C612.852,86.151 612.852,81.999 612.398,77.884L603.724,76.821C603.192,73.343 602.278,69.934 601,66.656L607.98,61.399C606.316,57.608 604.24,54.012 601.789,50.676L593.747,54.092C591.547,51.346 589.051,48.85 586.305,46.65L589.721,38.608C586.385,36.157 582.789,34.081 578.998,32.417L573.741,39.397C570.463,38.119 567.054,37.205 563.576,36.673L562.513,27.999ZM556.322,46.665C576.969,46.665 593.732,63.428 593.732,84.075C593.732,104.722 576.969,121.485 556.322,121.485C535.675,121.485 518.912,104.722 518.912,84.075C518.912,63.428 535.675,46.665 556.322,46.665Z" style="fill:white;"/>
                </g>
            </g>
        </g>
    </g>
</svg>
