<?xml version="1.0" encoding="UTF-8" standalone="no"?>
<!DOCTYPE svg PUBLIC "-//W3C//DTD SVG 1.1//EN" "http://www.w3.org/Graphics/SVG/1.1/DTD/svg11.dtd">
<svg width="100%" height="100%" viewBox="0 0 211 150" version="1.1" xmlns="http://www.w3.org/2000/svg" xmlns:xlink="http://www.w3.org/1999/xlink" xml:space="preserve" xmlns:serif="http://www.serif.com/" style="fill-rule:evenodd;clip-rule:evenodd;stroke-linejoin:round;stroke-miterlimit:2;">
    <g transform="matrix(1,0,0,1,-224,0)">
        <g id="flag_us" transform="matrix(1.05,0,0,1.875,224.038,0)">
            <rect x="0" y="0" width="200" height="80" style="fill:none;"/>
            <g id="background" transform="matrix(15.3801,0,0,6.99918,-6475.54,-81.5196)">
                <rect x="421.034" y="11.647" width="13.004" height="11.43" style="fill:white;"/>
            </g>
            <g id="stripes">
                <g transform="matrix(2.34874,0,0,0.11929,-585.501,69.8628)">
                    <rect x="249.283" y="33.392" width="85.152" height="51.587" style="fill:rgb(178,34,52);"/>
                </g>
                <g transform="matrix(2.34874,0,0,0.11929,-585.501,-3.98331)">
                    <rect x="249.283" y="33.392" width="85.152" height="51.587" style="fill:rgb(178,34,52);"/>
                </g>
                <g transform="matrix(2.34874,0,0,0.11929,-585.501,8.32438)">
                    <rect x="249.283" y="33.392" width="85.152" height="51.587" style="fill:rgb(178,34,52);"/>
                </g>
                <g transform="matrix(2.34874,0,0,0.11929,-585.501,20.6321)">
                    <rect x="249.283" y="33.392" width="85.152" height="51.587" style="fill:rgb(178,34,52);"/>
                </g>
                <g transform="matrix(2.34874,0,0,0.11929,-585.501,32.9398)">
                    <rect x="249.283" y="33.392" width="85.152" height="51.587" style="fill:rgb(178,34,52);"/>
                </g>
                <g transform="matrix(2.34874,0,0,0.11929,-585.501,45.2475)">
                    <rect x="249.283" y="33.392" width="85.152" height="51.587" style="fill:rgb(178,34,52);"/>
                </g>
                <g transform="matrix(2.34874,0,0,0.11929,-585.501,57.5552)">
                    <rect x="249.283" y="33.392" width="85.152" height="51.587" style="fill:rgb(178,34,52);"/>
                </g>
            </g>
            <g transform="matrix(1.06253,0,0,0.835031,-264.869,-27.8832)">
                <rect x="249.283" y="33.392" width="85.152" height="51.587" style="fill:rgb(60,59,110);"/>
            </g>
            <g id="stars">
                <g transform="matrix(1,0,0,1,-0.220133,0)">
                    <g transform="matrix(0.952381,0,0,0.533333,-223.195,-7.01458)">
                        <path d="M243.825,18.152L244.825,21.232L248.063,21.232L245.443,23.135L246.444,26.214L243.825,24.311L241.205,26.214L242.206,23.135L239.586,21.232L242.824,21.232L243.825,18.152Z" style="fill:white;"/>
                    </g>
                    <g transform="matrix(0.952381,0,0,0.533333,-223.195,1.3464)">
                        <path d="M243.825,18.152L244.825,21.232L248.063,21.232L245.443,23.135L246.444,26.214L243.825,24.311L241.205,26.214L242.206,23.135L239.586,21.232L242.824,21.232L243.825,18.152Z" style="fill:white;"/>
                    </g>
                    <g transform="matrix(0.952381,0,0,0.533333,-223.195,9.70737)">
                        <path d="M243.825,18.152L244.825,21.232L248.063,21.232L245.443,23.135L246.444,26.214L243.825,24.311L241.205,26.214L242.206,23.135L239.586,21.232L242.824,21.232L243.825,18.152Z" style="fill:white;"/>
                    </g>
                    <g transform="matrix(0.952381,0,0,0.533333,-223.195,18.0683)">
                        <path d="M243.825,18.152L244.825,21.232L248.063,21.232L245.443,23.135L246.444,26.214L243.825,24.311L241.205,26.214L242.206,23.135L239.586,21.232L242.824,21.232L243.825,18.152Z" style="fill:white;"/>
                    </g>
                    <g transform="matrix(0.952381,0,0,0.533333,-223.195,26.4293)">
                        <path d="M243.825,18.152L244.825,21.232L248.063,21.232L245.443,23.135L246.444,26.214L243.825,24.311L241.205,26.214L242.206,23.135L239.586,21.232L242.824,21.232L243.825,18.152Z" style="fill:white;"/>
                    </g>
                </g>
                <g transform="matrix(1,0,0,1,17.9997,0)">
                    <g transform="matrix(0.952381,0,0,0.533333,-223.195,-7.01458)">
                        <path d="M243.825,18.152L244.825,21.232L248.063,21.232L245.443,23.135L246.444,26.214L243.825,24.311L241.205,26.214L242.206,23.135L239.586,21.232L242.824,21.232L243.825,18.152Z" style="fill:white;"/>
                    </g>
                    <g transform="matrix(0.952381,0,0,0.533333,-223.195,1.3464)">
                        <path d="M243.825,18.152L244.825,21.232L248.063,21.232L245.443,23.135L246.444,26.214L243.825,24.311L241.205,26.214L242.206,23.135L239.586,21.232L242.824,21.232L243.825,18.152Z" style="fill:white;"/>
                    </g>
                    <g transform="matrix(0.952381,0,0,0.533333,-223.195,9.70737)">
                        <path d="M243.825,18.152L244.825,21.232L248.063,21.232L245.443,23.135L246.444,26.214L243.825,24.311L241.205,26.214L242.206,23.135L239.586,21.232L242.824,21.232L243.825,18.152Z" style="fill:white;"/>
                    </g>
                    <g transform="matrix(0.952381,0,0,0.533333,-223.195,18.0683)">
                        <path d="M243.825,18.152L244.825,21.232L248.063,21.232L245.443,23.135L246.444,26.214L243.825,24.311L241.205,26.214L242.206,23.135L239.586,21.232L242.824,21.232L243.825,18.152Z" style="fill:white;"/>
                    </g>
                    <g transform="matrix(0.952381,0,0,0.533333,-223.195,26.4293)">
                        <path d="M243.825,18.152L244.825,21.232L248.063,21.232L245.443,23.135L246.444,26.214L243.825,24.311L241.205,26.214L242.206,23.135L239.586,21.232L242.824,21.232L243.825,18.152Z" style="fill:white;"/>
                    </g>
                </g>
                <g transform="matrix(1,0,0,1,36.2195,0)">
                    <g transform="matrix(0.952381,0,0,0.533333,-223.195,-7.01458)">
                        <path d="M243.825,18.152L244.825,21.232L248.063,21.232L245.443,23.135L246.444,26.214L243.825,24.311L241.205,26.214L242.206,23.135L239.586,21.232L242.824,21.232L243.825,18.152Z" style="fill:white;"/>
                    </g>
                    <g transform="matrix(0.952381,0,0,0.533333,-223.195,1.3464)">
                        <path d="M243.825,18.152L244.825,21.232L248.063,21.232L245.443,23.135L246.444,26.214L243.825,24.311L241.205,26.214L242.206,23.135L239.586,21.232L242.824,21.232L243.825,18.152Z" style="fill:white;"/>
                    </g>
                    <g transform="matrix(0.952381,0,0,0.533333,-223.195,9.70737)">
                        <path d="M243.825,18.152L244.825,21.232L248.063,21.232L245.443,23.135L246.444,26.214L243.825,24.311L241.205,26.214L242.206,23.135L239.586,21.232L242.824,21.232L243.825,18.152Z" style="fill:white;"/>
                    </g>
                    <g transform="matrix(0.952381,0,0,0.533333,-223.195,18.0683)">
                        <path d="M243.825,18.152L244.825,21.232L248.063,21.232L245.443,23.135L246.444,26.214L243.825,24.311L241.205,26.214L242.206,23.135L239.586,21.232L242.824,21.232L243.825,18.152Z" style="fill:white;"/>
                    </g>
                    <g transform="matrix(0.952381,0,0,0.533333,-223.195,26.4293)">
                        <path d="M243.825,18.152L244.825,21.232L248.063,21.232L245.443,23.135L246.444,26.214L243.825,24.311L241.205,26.214L242.206,23.135L239.586,21.232L242.824,21.232L243.825,18.152Z" style="fill:white;"/>
                    </g>
                </g>
                <g transform="matrix(1,0,0,1,54.4393,0)">
                    <g transform="matrix(0.952381,0,0,0.533333,-223.195,-7.01458)">
                        <path d="M243.825,18.152L244.825,21.232L248.063,21.232L245.443,23.135L246.444,26.214L243.825,24.311L241.205,26.214L242.206,23.135L239.586,21.232L242.824,21.232L243.825,18.152Z" style="fill:white;"/>
                    </g>
                    <g transform="matrix(0.952381,0,0,0.533333,-223.195,1.3464)">
                        <path d="M243.825,18.152L244.825,21.232L248.063,21.232L245.443,23.135L246.444,26.214L243.825,24.311L241.205,26.214L242.206,23.135L239.586,21.232L242.824,21.232L243.825,18.152Z" style="fill:white;"/>
                    </g>
                    <g transform="matrix(0.952381,0,0,0.533333,-223.195,9.70737)">
                        <path d="M243.825,18.152L244.825,21.232L248.063,21.232L245.443,23.135L246.444,26.214L243.825,24.311L241.205,26.214L242.206,23.135L239.586,21.232L242.824,21.232L243.825,18.152Z" style="fill:white;"/>
                    </g>
                    <g transform="matrix(0.952381,0,0,0.533333,-223.195,18.0683)">
                        <path d="M243.825,18.152L244.825,21.232L248.063,21.232L245.443,23.135L246.444,26.214L243.825,24.311L241.205,26.214L242.206,23.135L239.586,21.232L242.824,21.232L243.825,18.152Z" style="fill:white;"/>
                    </g>
                    <g transform="matrix(0.952381,0,0,0.533333,-223.195,26.4293)">
                        <path d="M243.825,18.152L244.825,21.232L248.063,21.232L245.443,23.135L246.444,26.214L243.825,24.311L241.205,26.214L242.206,23.135L239.586,21.232L242.824,21.232L243.825,18.152Z" style="fill:white;"/>
                    </g>
                </g>
                <g transform="matrix(1,0,0,1,72.6591,0)">
                    <g transform="matrix(0.952381,0,0,0.533333,-223.195,-7.01458)">
                        <path d="M243.825,18.152L244.825,21.232L248.063,21.232L245.443,23.135L246.444,26.214L243.825,24.311L241.205,26.214L242.206,23.135L239.586,21.232L242.824,21.232L243.825,18.152Z" style="fill:white;"/>
                    </g>
                    <g transform="matrix(0.952381,0,0,0.533333,-223.195,1.3464)">
                        <path d="M243.825,18.152L244.825,21.232L248.063,21.232L245.443,23.135L246.444,26.214L243.825,24.311L241.205,26.214L242.206,23.135L239.586,21.232L242.824,21.232L243.825,18.152Z" style="fill:white;"/>
                    </g>
                    <g transform="matrix(0.952381,0,0,0.533333,-223.195,9.70737)">
                        <path d="M243.825,18.152L244.825,21.232L248.063,21.232L245.443,23.135L246.444,26.214L243.825,24.311L241.205,26.214L242.206,23.135L239.586,21.232L242.824,21.232L243.825,18.152Z" style="fill:white;"/>
                    </g>
                    <g transform="matrix(0.952381,0,0,0.533333,-223.195,18.0683)">
                        <path d="M243.825,18.152L244.825,21.232L248.063,21.232L245.443,23.135L246.444,26.214L243.825,24.311L241.205,26.214L242.206,23.135L239.586,21.232L242.824,21.232L243.825,18.152Z" style="fill:white;"/>
                    </g>
                    <g transform="matrix(0.952381,0,0,0.533333,-223.195,26.4293)">
                        <path d="M243.825,18.152L244.825,21.232L248.063,21.232L245.443,23.135L246.444,26.214L243.825,24.311L241.205,26.214L242.206,23.135L239.586,21.232L242.824,21.232L243.825,18.152Z" style="fill:white;"/>
                    </g>
                </g>
                <g transform="matrix(1,0,0,1,-1.18832,0)">
                    <g transform="matrix(0.952381,0,0,0.533333,-213.117,22.2488)">
                        <path d="M243.825,18.152L244.825,21.232L248.063,21.232L245.443,23.135L246.444,26.214L243.825,24.311L241.205,26.214L242.206,23.135L239.586,21.232L242.824,21.232L243.825,18.152Z" style="fill:white;"/>
                    </g>
                    <g transform="matrix(0.952381,0,0,0.533333,-213.117,13.8879)">
                        <path d="M243.825,18.152L244.825,21.232L248.063,21.232L245.443,23.135L246.444,26.214L243.825,24.311L241.205,26.214L242.206,23.135L239.586,21.232L242.824,21.232L243.825,18.152Z" style="fill:white;"/>
                    </g>
                    <g transform="matrix(0.952381,0,0,0.533333,-213.117,5.52688)">
                        <path d="M243.825,18.152L244.825,21.232L248.063,21.232L245.443,23.135L246.444,26.214L243.825,24.311L241.205,26.214L242.206,23.135L239.586,21.232L242.824,21.232L243.825,18.152Z" style="fill:white;"/>
                    </g>
                    <g transform="matrix(0.952381,0,0,0.533333,-213.117,-2.83409)">
                        <path d="M243.825,18.152L244.825,21.232L248.063,21.232L245.443,23.135L246.444,26.214L243.825,24.311L241.205,26.214L242.206,23.135L239.586,21.232L242.824,21.232L243.825,18.152Z" style="fill:white;"/>
                    </g>
                </g>
                <g transform="matrix(1,0,0,1,17.0315,0)">
                    <g transform="matrix(0.952381,0,0,0.533333,-213.117,22.2488)">
                        <path d="M243.825,18.152L244.825,21.232L248.063,21.232L245.443,23.135L246.444,26.214L243.825,24.311L241.205,26.214L242.206,23.135L239.586,21.232L242.824,21.232L243.825,18.152Z" style="fill:white;"/>
                    </g>
                    <g transform="matrix(0.952381,0,0,0.533333,-213.117,13.8879)">
                        <path d="M243.825,18.152L244.825,21.232L248.063,21.232L245.443,23.135L246.444,26.214L243.825,24.311L241.205,26.214L242.206,23.135L239.586,21.232L242.824,21.232L243.825,18.152Z" style="fill:white;"/>
                    </g>
                    <g transform="matrix(0.952381,0,0,0.533333,-213.117,5.52688)">
                        <path d="M243.825,18.152L244.825,21.232L248.063,21.232L245.443,23.135L246.444,26.214L243.825,24.311L241.205,26.214L242.206,23.135L239.586,21.232L242.824,21.232L243.825,18.152Z" style="fill:white;"/>
                    </g>
                    <g transform="matrix(0.952381,0,0,0.533333,-213.117,-2.83409)">
                        <path d="M243.825,18.152L244.825,21.232L248.063,21.232L245.443,23.135L246.444,26.214L243.825,24.311L241.205,26.214L242.206,23.135L239.586,21.232L242.824,21.232L243.825,18.152Z" style="fill:white;"/>
                    </g>
                </g>
                <g transform="matrix(1,0,0,1,35.2513,0)">
                    <g transform="matrix(0.952381,0,0,0.533333,-213.117,22.2488)">
                        <path d="M243.825,18.152L244.825,21.232L248.063,21.232L245.443,23.135L246.444,26.214L243.825,24.311L241.205,26.214L242.206,23.135L239.586,21.232L242.824,21.232L243.825,18.152Z" style="fill:white;"/>
                    </g>
                    <g transform="matrix(0.952381,0,0,0.533333,-213.117,13.8879)">
                        <path d="M243.825,18.152L244.825,21.232L248.063,21.232L245.443,23.135L246.444,26.214L243.825,24.311L241.205,26.214L242.206,23.135L239.586,21.232L242.824,21.232L243.825,18.152Z" style="fill:white;"/>
                    </g>
                    <g transform="matrix(0.952381,0,0,0.533333,-213.117,5.52688)">
                        <path d="M243.825,18.152L244.825,21.232L248.063,21.232L245.443,23.135L246.444,26.214L243.825,24.311L241.205,26.214L242.206,23.135L239.586,21.232L242.824,21.232L243.825,18.152Z" style="fill:white;"/>
                    </g>
                    <g transform="matrix(0.952381,0,0,0.533333,-213.117,-2.83409)">
                        <path d="M243.825,18.152L244.825,21.232L248.063,21.232L245.443,23.135L246.444,26.214L243.825,24.311L241.205,26.214L242.206,23.135L239.586,21.232L242.824,21.232L243.825,18.152Z" style="fill:white;"/>
                    </g>
                </g>
                <g transform="matrix(1,0,0,1,53.4711,0)">
                    <g transform="matrix(0.952381,0,0,0.533333,-213.117,22.2488)">
                        <path d="M243.825,18.152L244.825,21.232L248.063,21.232L245.443,23.135L246.444,26.214L243.825,24.311L241.205,26.214L242.206,23.135L239.586,21.232L242.824,21.232L243.825,18.152Z" style="fill:white;"/>
                    </g>
                    <g transform="matrix(0.952381,0,0,0.533333,-213.117,13.8879)">
                        <path d="M243.825,18.152L244.825,21.232L248.063,21.232L245.443,23.135L246.444,26.214L243.825,24.311L241.205,26.214L242.206,23.135L239.586,21.232L242.824,21.232L243.825,18.152Z" style="fill:white;"/>
                    </g>
                    <g transform="matrix(0.952381,0,0,0.533333,-213.117,5.52688)">
                        <path d="M243.825,18.152L244.825,21.232L248.063,21.232L245.443,23.135L246.444,26.214L243.825,24.311L241.205,26.214L242.206,23.135L239.586,21.232L242.824,21.232L243.825,18.152Z" style="fill:white;"/>
                    </g>
                    <g transform="matrix(0.952381,0,0,0.533333,-213.117,-2.83409)">
                        <path d="M243.825,18.152L244.825,21.232L248.063,21.232L245.443,23.135L246.444,26.214L243.825,24.311L241.205,26.214L242.206,23.135L239.586,21.232L242.824,21.232L243.825,18.152Z" style="fill:white;"/>
                    </g>
                </g>
            </g>
        </g>
    </g>
</svg>
