<?xml version="1.0" encoding="UTF-8" standalone="no"?><!DOCTYPE svg PUBLIC "-//W3C//DTD SVG 1.1//EN" "http://www.w3.org/Graphics/SVG/1.1/DTD/svg11.dtd"><svg width="100%" height="100%" viewBox="0 0 542 227" version="1.1" xmlns="http://www.w3.org/2000/svg" xmlns:xlink="http://www.w3.org/1999/xlink" xml:space="preserve" xmlns:serif="http://www.serif.com/" style="fill-rule:evenodd;clip-rule:evenodd;stroke-linejoin:round;stroke-miterlimit:2;"><g id="layer1"><path id="path84" d="M207.515,80.923l-0,18.076c-0,0.9 -0.774,2.383 -1.674,3.28l-18.41,18.41c-0.45,0.45 -0.91,0.67 -1.205,0.67c-0.295,-0 -0.469,-0.22 -0.469,-0.67l0,2.009c0,0.899 0.774,1.673 1.674,1.673l40.101,0c0.899,0 1.673,-0.774 1.673,-1.673l0,-40.168c0,-0.9 -0.774,-1.607 -1.673,-1.607l-20.017,0Zm-25.507,41.775c0,0.899 -0.776,1.673 -1.673,1.673l-20.017,0l0,21.824c0,0.45 0.177,0.67 0.469,0.67c0.292,-0 0.688,-0.22 1.138,-0.67l18.41,-18.41c0.897,-0.899 1.673,-2.38 1.673,-3.28l0,-1.807Z" style="fill:#7d8990;fill-rule:nonzero;"/><path id="path88" d="M207.046,58.162c-0.296,-0 -0.755,0.219 -1.205,0.669l-18.41,18.477c-0.897,0.897 -1.674,2.314 -1.674,3.214l0,40.167c0,0.9 0.777,0.9 1.674,0l18.41,-18.41c0.9,-0.9 1.674,-2.38 1.674,-3.28l-0,-40.168c-0,-0.45 -0.173,-0.669 -0.469,-0.669Zm-66.812,22.761c-0.899,0 -1.673,0.707 -1.673,1.607l-0,40.168c-0,0.899 0.774,1.673 1.673,1.673l40.101,0c0.9,0 1.673,-0.774 1.673,-1.673l0,-40.168c0,-0.9 -0.773,-1.607 -1.673,-1.607l-40.101,0Z" style="fill:#e2001a;fill-rule:nonzero;"/><path id="path100" d="M187.431,80.923c-0.9,0 -1.674,0.774 -1.674,1.674l0,38.092c0,0.45 0.175,0.67 0.469,0.67c0.295,-0 0.755,-0.22 1.205,-0.67l18.41,-18.41c0.9,-0.9 1.674,-2.383 1.674,-3.28l-0,-18.076l-20.084,0Zm-5.891,2.745c-0.297,0 -0.755,0.222 -1.205,0.67l-18.41,18.477c-0.897,0.915 -1.607,2.316 -1.607,3.213l0,18.343l20.017,0c0.9,0 1.673,-0.774 1.673,-1.673l0,-38.36c0,-0.448 -0.174,-0.67 -0.468,-0.67Z" style="fill:#8e1016;fill-rule:nonzero;"/><path id="path238" d="M330.963,80.99c-0.308,0 -0.589,0.073 -0.804,0.268c-0.219,0.198 -0.334,0.431 -0.334,0.737l-0,41.238c-0,0.303 0.115,0.584 0.334,0.803c0.215,0.209 0.496,0.335 0.804,0.335l9.908,0c2.032,0 4.003,-0.308 5.824,-0.87c1.821,-0.57 3.387,-1.355 4.753,-2.41c1.368,-1.069 2.434,-2.386 3.213,-3.95c0.78,-1.561 1.205,-3.339 1.205,-5.289c0,-1.347 -0.233,-2.624 -0.736,-3.816c-0.498,-1.194 -1.165,-2.238 -2.008,-3.146c-0.849,-0.913 -1.84,-1.623 -2.946,-2.209c-1.103,-0.587 -2.273,-0.988 -3.481,-1.205c0.867,-0.26 1.74,-0.686 2.678,-1.272c0.934,-0.584 1.829,-1.296 2.611,-2.142c0.782,-0.847 1.422,-1.819 1.941,-2.879c0.522,-1.063 0.803,-2.18 0.803,-3.347c0,-1.867 -0.35,-3.46 -1.071,-4.821c-0.72,-1.368 -1.679,-2.525 -2.878,-3.414c-1.195,-0.886 -2.568,-1.574 -4.151,-2.008c-1.585,-0.431 -3.256,-0.603 -4.954,-0.603l-10.711,0Zm30.058,0c-0.302,0 -0.538,0.075 -0.736,0.268c-0.19,0.196 -0.222,0.434 -0.134,0.737l8.301,41.238c0.088,0.297 0.297,0.584 0.536,0.803c0.238,0.212 0.503,0.335 0.803,0.335l3.28,0c0.306,0 0.565,-0.123 0.804,-0.335c0.233,-0.219 0.38,-0.506 0.468,-0.803l7.097,-36.351l7.163,36.351c0.086,0.297 0.23,0.584 0.468,0.803c0.239,0.212 0.504,0.335 0.804,0.335l3.28,0c0.308,0 0.584,-0.123 0.804,-0.335c0.219,-0.219 0.38,-0.506 0.468,-0.803l8.301,-41.238c0.091,-0.303 0.038,-0.541 -0.133,-0.737c-0.18,-0.193 -0.37,-0.268 -0.67,-0.268l-2.611,0c-0.651,0 -1.1,0.311 -1.272,1.005l-6.427,36.418l-7.163,-36.418c-0.174,-0.694 -0.546,-1.005 -1.205,-1.005l-3.28,0c-0.691,0 -1.103,0.311 -1.272,1.005l-7.096,36.418l-6.494,-36.418c-0.177,-0.694 -0.648,-1.005 -1.339,-1.005l-2.745,0Zm-26.443,3.816l7.096,0c2.437,0 4.432,0.643 5.958,1.942c1.518,1.298 2.276,3.077 2.276,5.288c0,1.128 -0.262,2.129 -0.736,3.08c-0.482,0.953 -1.09,1.789 -1.875,2.477c-0.779,0.696 -1.681,1.216 -2.677,1.607c-1.002,0.393 -2.065,0.602 -3.147,0.602l-6.895,0l-0,-14.996Zm-0,18.745l7.096,0c2.739,0 4.973,0.755 6.695,2.209c1.711,1.452 2.543,3.374 2.543,5.891c0,1.305 -0.187,2.528 -0.669,3.616c-0.479,1.081 -1.16,2.032 -2.008,2.811c-0.847,0.782 -1.816,1.374 -2.946,1.808c-1.13,0.439 -2.356,0.669 -3.615,0.669l-7.096,0l-0,-17.004Zm-57.574,30.728l0,9.908c0,0.265 0.015,0.56 0.067,0.803c0.048,0.244 0.142,0.418 0.268,0.603c0.126,0.179 0.327,0.361 0.536,0.469c0.208,0.109 0.474,0.133 0.803,0.133c0.166,0 0.337,-0.01 0.535,-0.066c0.199,-0.054 0.325,-0.148 0.402,-0.201l-0.335,-0.937l-0.267,0.2l-0.268,0.067c-0.209,0 -0.383,-0.128 -0.469,-0.334c-0.088,-0.212 -0.134,-0.461 -0.134,-0.804l0,-9.841l-1.138,0l0,0Zm43.046,0l0,11.716l1.139,-0l-0,-5.959l0.2,-0.401l0.402,-0.536c0.179,-0.169 0.434,-0.345 0.669,-0.468c0.236,-0.129 0.474,-0.201 0.737,-0.201c0.265,-0 0.466,0.08 0.669,0.201c0.204,0.12 0.405,0.275 0.536,0.468c0.134,0.19 0.195,0.434 0.268,0.67c0.072,0.238 0.134,0.447 0.134,0.669l-0,5.557l1.138,-0l-0,-5.691c-0,-0.34 -0.025,-0.669 -0.134,-1.004c-0.11,-0.337 -0.322,-0.669 -0.536,-0.937c-0.211,-0.263 -0.474,-0.445 -0.803,-0.603c-0.33,-0.16 -0.699,-0.267 -1.138,-0.267c-0.287,-0 -0.557,0.085 -0.804,0.2c-0.246,0.118 -0.479,0.247 -0.669,0.402c-0.193,0.152 -0.354,0.321 -0.469,0.469l-0.2,0.334l-0,-4.619l-1.139,0Zm22.896,0l-0,11.716l1.138,-0l-0,-5.959l0.201,-0.401l0.401,-0.536c0.182,-0.169 0.365,-0.345 0.603,-0.468c0.236,-0.129 0.541,-0.201 0.803,-0.201c0.265,-0 0.464,0.08 0.67,0.201c0.203,0.12 0.404,0.275 0.535,0.468c0.131,0.19 0.196,0.434 0.268,0.67c0.07,0.238 0.134,0.447 0.134,0.669l-0,5.557l1.138,-0l0,-5.691c0,-0.34 -0.088,-0.669 -0.201,-1.004c-0.107,-0.337 -0.251,-0.669 -0.468,-0.937c-0.215,-0.263 -0.474,-0.445 -0.804,-0.603c-0.329,-0.16 -0.693,-0.267 -1.138,-0.267c-0.284,-0 -0.557,0.085 -0.803,0.2c-0.246,0.118 -0.479,0.247 -0.67,0.402c-0.192,0.152 -0.353,0.321 -0.468,0.469l-0.201,0.334l0,-4.619l-1.138,0l-0,0Zm17.272,0l-0,9.908c-0,0.265 0.013,0.56 0.067,0.803c0.045,0.244 0.139,0.418 0.268,0.603c0.125,0.179 0.259,0.361 0.468,0.469c0.209,0.109 0.474,0.133 0.803,0.133c0.164,0 0.402,-0.01 0.603,-0.066c0.196,-0.054 0.327,-0.148 0.402,-0.201l-0.335,-0.937l-0.268,0.2l-0.334,0.067c-0.207,0 -0.316,-0.128 -0.402,-0.334c-0.091,-0.212 -0.134,-0.461 -0.134,-0.804l-0,-9.841l-1.138,0Zm-109.322,0.737l-0,10.979l2.61,-0c0.683,-0 1.291,-0.169 1.875,-0.469c0.584,-0.295 1.117,-0.691 1.54,-1.205c0.423,-0.517 0.76,-1.106 1.004,-1.808c0.241,-0.698 0.335,-1.472 0.335,-2.276c-0,-0.824 -0.15,-1.558 -0.402,-2.209c-0.254,-0.651 -0.554,-1.154 -1.004,-1.607c-0.45,-0.449 -0.996,-0.83 -1.607,-1.071c-0.61,-0.241 -1.304,-0.334 -2.008,-0.334l-2.343,-0Zm43.514,-0l0,10.979l1.205,-0l0,-5.222l4.486,-0l-0,5.222l1.205,-0l-0,-10.979l-1.205,-0l-0,4.753l-4.486,-0l0,-4.753l-1.205,-0Zm-42.309,0.937l1.339,-0c0.473,-0 0.902,0.136 1.338,0.335c0.434,0.198 0.809,0.431 1.139,0.803c0.329,0.367 0.605,0.809 0.803,1.339c0.198,0.53 0.335,1.135 0.335,1.807c-0,0.672 -0.086,1.296 -0.268,1.875c-0.18,0.578 -0.485,1.111 -0.804,1.54c-0.318,0.431 -0.701,0.755 -1.138,1.004c-0.433,0.246 -0.843,0.401 -1.339,0.401l-1.405,0l-0,-9.104Zm19.28,1.54c-0.289,-0 -0.589,0.069 -0.87,0.133c-0.282,0.067 -0.571,0.115 -0.804,0.201c-0.23,0.091 -0.369,0.19 -0.535,0.268l-0.335,0.134l0.335,0.937l0.334,-0.201c0.159,-0.083 0.338,-0.117 0.536,-0.2c0.198,-0.081 0.383,-0.201 0.603,-0.268c0.222,-0.064 0.428,-0.067 0.602,-0.067c0.595,-0 1.047,0.166 1.339,0.536c0.289,0.366 0.402,0.8 0.402,1.338l-0,0.536l-1.607,0.402c-0.321,0.061 -0.635,0.179 -1.004,0.334c-0.367,0.153 -0.755,0.311 -1.071,0.536c-0.314,0.217 -0.536,0.506 -0.737,0.803c-0.206,0.298 -0.334,0.587 -0.334,0.938c-0,0.739 0.27,1.33 0.736,1.74c0.469,0.407 1.082,0.603 1.807,0.603c0.308,-0 0.533,-0.02 0.804,-0.134c0.27,-0.115 0.527,-0.316 0.736,-0.469c0.209,-0.155 0.41,-0.249 0.536,-0.401l0.2,-0.335l0,1.138l1.072,-0l-0,-5.691c-0,-0.899 -0.236,-1.609 -0.737,-2.075c-0.501,-0.468 -1.173,-0.736 -2.008,-0.736l-0,-0Zm12.72,-0c-0.506,-0 -0.959,0.195 -1.339,0.468c-0.381,0.279 -0.678,0.592 -0.938,1.004c-0.257,0.413 -0.471,0.857 -0.602,1.339c-0.134,0.485 -0.201,0.935 -0.201,1.339c0,0.517 0.035,1.071 0.134,1.607c0.099,0.533 0.289,1.025 0.536,1.473c0.249,0.444 0.586,0.792 1.004,1.071c0.418,0.284 0.956,0.401 1.607,0.401c0.308,0 0.589,-0.017 0.87,-0.066c0.281,-0.049 0.578,-0.137 0.803,-0.201c0.225,-0.067 0.378,-0.134 0.536,-0.201l0.334,-0.134l-0.334,-0.937l-0.335,0.201c-0.145,0.072 -0.345,0.134 -0.536,0.201c-0.192,0.064 -0.375,0.085 -0.602,0.133c-0.225,0.051 -0.439,0.134 -0.67,0.134c-0.385,0 -0.728,-0.12 -1.004,-0.334c-0.276,-0.215 -0.492,-0.48 -0.669,-0.804c-0.177,-0.326 -0.319,-0.696 -0.402,-1.071c-0.083,-0.372 -0.134,-0.742 -0.134,-1.071l4.954,-0l0,-0.402c0,-0.436 -0.029,-0.921 -0.134,-1.406c-0.107,-0.484 -0.3,-0.929 -0.535,-1.339c-0.239,-0.404 -0.555,-0.739 -0.937,-1.004c-0.389,-0.262 -0.844,-0.401 -1.406,-0.401l-0,-0Zm23.096,-0c-0.581,-0 -1.058,0.176 -1.473,0.468c-0.412,0.292 -0.742,0.648 -1.004,1.071c-0.265,0.426 -0.485,0.865 -0.603,1.339c-0.123,0.474 -0.2,0.9 -0.2,1.272c-0,0.463 0.096,0.937 0.2,1.473c0.105,0.533 0.29,1.023 0.536,1.473c0.249,0.45 0.581,0.835 1.004,1.138c0.426,0.3 0.913,0.468 1.54,0.468c0.605,0 1.122,-0.168 1.54,-0.468c0.417,-0.303 0.749,-0.68 1.004,-1.138c0.254,-0.458 0.42,-0.937 0.535,-1.473c0.115,-0.533 0.201,-1.02 0.201,-1.473c0,-0.383 -0.024,-0.795 -0.134,-1.272c-0.112,-0.479 -0.345,-0.921 -0.602,-1.339c-0.252,-0.42 -0.587,-0.787 -1.004,-1.071c-0.418,-0.286 -0.924,-0.468 -1.54,-0.468l-0,-0Zm8.502,-0c-0.503,-0 -0.937,0.141 -1.339,0.401c-0.402,0.257 -0.726,0.605 -1.004,1.004c-0.284,0.394 -0.514,0.852 -0.67,1.339c-0.155,0.49 -0.267,0.943 -0.267,1.406c-0,0.563 0.085,1.13 0.2,1.674c0.115,0.546 0.284,1.044 0.536,1.473c0.254,0.428 0.592,0.739 1.004,1.004c0.413,0.262 0.943,0.401 1.54,0.401c0.273,0 0.549,-0.012 0.803,-0.066c0.255,-0.049 0.466,-0.134 0.67,-0.201c0.203,-0.067 0.332,-0.134 0.468,-0.201l0.335,-0.134l-0.402,-0.937l-0.267,0.201l-0.469,0.201c-0.171,0.064 -0.348,0.091 -0.536,0.133c-0.187,0.046 -0.358,0.067 -0.535,0.067c-0.372,0 -0.737,-0.118 -1.004,-0.334c-0.271,-0.215 -0.498,-0.461 -0.67,-0.804c-0.171,-0.337 -0.257,-0.771 -0.335,-1.205c-0.077,-0.434 -0.133,-0.843 -0.133,-1.272c-0,-0.351 0.037,-0.699 0.133,-1.071c0.092,-0.375 0.225,-0.758 0.402,-1.071c0.177,-0.313 0.413,-0.538 0.67,-0.736c0.259,-0.196 0.541,-0.335 0.87,-0.335l0.535,0.067l0.469,0.2l0.469,0.201l0.2,0.134l0.402,-0.937l-0.268,-0.201l-0.468,-0.134c-0.185,-0.059 -0.37,-0.155 -0.603,-0.201c-0.23,-0.042 -0.493,-0.066 -0.736,-0.066l0,-0Zm15.331,-0c-0.365,-0 -0.686,0.08 -1.005,0.2c-0.321,0.123 -0.624,0.316 -0.87,0.536c-0.249,0.219 -0.46,0.495 -0.602,0.803c-0.145,0.308 -0.201,0.64 -0.201,1.004c-0,0.34 0.077,0.616 0.268,0.871c0.192,0.254 0.444,0.46 0.736,0.669c0.292,0.209 0.597,0.423 0.937,0.603c0.343,0.184 0.646,0.353 0.938,0.535c0.291,0.182 0.543,0.41 0.736,0.603c0.193,0.193 0.335,0.361 0.335,0.602c-0,0.431 -0.156,0.763 -0.469,1.004c-0.313,0.244 -0.718,0.402 -1.138,0.402c-0.198,0 -0.429,-0.011 -0.67,-0.067c-0.243,-0.053 -0.455,-0.139 -0.669,-0.2c-0.214,-0.07 -0.372,-0.129 -0.536,-0.201l-0.334,-0.201l-0.402,0.937l0.402,0.201c0.16,0.067 0.316,0.134 0.535,0.201c0.217,0.067 0.52,0.088 0.804,0.134c0.278,0.043 0.54,0.066 0.87,0.066c0.375,0 0.734,-0.08 1.071,-0.2c0.337,-0.121 0.624,-0.249 0.87,-0.469c0.249,-0.222 0.461,-0.501 0.603,-0.803c0.142,-0.303 0.201,-0.651 0.201,-1.004c-0,-0.308 -0.07,-0.557 -0.268,-0.804c-0.198,-0.249 -0.445,-0.46 -0.737,-0.669c-0.289,-0.209 -0.589,-0.421 -0.937,-0.603c-0.348,-0.179 -0.712,-0.345 -1.004,-0.535c-0.289,-0.185 -0.541,-0.394 -0.737,-0.603c-0.198,-0.209 -0.267,-0.426 -0.267,-0.669c-0,-0.431 0.169,-0.812 0.468,-1.071c0.295,-0.26 0.651,-0.402 1.071,-0.402l0.469,0.067l0.536,0.201l0.401,0.2l0.268,0.134l0.335,-0.87l-0.268,-0.201c-0.131,-0.059 -0.281,-0.08 -0.469,-0.134c-0.187,-0.053 -0.377,-0.158 -0.602,-0.201c-0.225,-0.045 -0.447,-0.066 -0.67,-0.066l0.001,-0Zm7.564,-0c-0.506,-0 -0.937,0.141 -1.338,0.401c-0.402,0.257 -0.79,0.605 -1.072,1.004c-0.281,0.394 -0.447,0.852 -0.602,1.339c-0.155,0.49 -0.268,0.943 -0.268,1.406c0,0.563 0.086,1.13 0.201,1.674c0.115,0.546 0.281,1.044 0.535,1.473c0.252,0.428 0.592,0.739 1.005,1.004c0.412,0.262 0.878,0.401 1.472,0.401c0.274,0 0.549,-0.012 0.804,-0.066c0.254,-0.049 0.533,-0.134 0.736,-0.201c0.204,-0.067 0.33,-0.134 0.469,-0.201l0.268,-0.134l-0.335,-0.937l-0.335,0.201l-0.401,0.201c-0.172,0.064 -0.349,0.091 -0.536,0.133c-0.187,0.046 -0.423,0.067 -0.603,0.067c-0.372,0 -0.666,-0.118 -0.937,-0.334c-0.27,-0.215 -0.498,-0.461 -0.669,-0.804c-0.172,-0.337 -0.26,-0.771 -0.335,-1.205c-0.078,-0.434 -0.134,-0.843 -0.134,-1.272c0,-0.351 0.04,-0.699 0.134,-1.071c0.094,-0.375 0.225,-0.758 0.402,-1.071c0.176,-0.313 0.412,-0.538 0.669,-0.736c0.257,-0.196 0.538,-0.335 0.87,-0.335l0.469,0.067l0.536,0.2l0.468,0.201l0.201,0.134l0.335,-0.937l-0.201,-0.201l-0.469,-0.134c-0.179,-0.059 -0.369,-0.155 -0.602,-0.201c-0.23,-0.042 -0.496,-0.066 -0.737,-0.066Zm28.586,-0c-0.506,-0 -0.961,0.195 -1.339,0.468c-0.383,0.279 -0.677,0.592 -0.937,1.004c-0.257,0.413 -0.471,0.857 -0.602,1.339c-0.132,0.485 -0.201,0.935 -0.201,1.339c-0,0.517 0.099,1.071 0.201,1.607c0.093,0.533 0.222,1.025 0.468,1.473c0.249,0.444 0.587,0.792 1.004,1.071c0.418,0.284 0.956,0.401 1.607,0.401c0.311,0 0.592,-0.017 0.87,-0.066c0.282,-0.049 0.579,-0.137 0.804,-0.201c0.227,-0.067 0.375,-0.134 0.535,-0.201l0.335,-0.134l-0.335,-0.937l-0.334,0.201c-0.142,0.072 -0.276,0.134 -0.469,0.201c-0.193,0.064 -0.445,0.085 -0.67,0.133c-0.227,0.051 -0.436,0.134 -0.669,0.134c-0.386,0 -0.728,-0.12 -1.004,-0.334c-0.276,-0.215 -0.493,-0.48 -0.67,-0.804c-0.176,-0.326 -0.318,-0.696 -0.401,-1.071c-0.081,-0.372 -0.134,-0.742 -0.134,-1.071l4.954,-0l-0,-0.402c-0,-0.436 -0.03,-0.921 -0.134,-1.406c-0.102,-0.484 -0.297,-0.929 -0.536,-1.339c-0.235,-0.404 -0.551,-0.739 -0.937,-1.004c-0.385,-0.262 -0.843,-0.401 -1.406,-0.401l0,-0Zm-106.979,0.2l0,5.691c0,0.364 0.102,0.731 0.201,1.071c0.099,0.343 0.26,0.613 0.468,0.87c0.209,0.26 0.48,0.512 0.804,0.67c0.324,0.16 0.685,0.2 1.138,0.2c0.297,0 0.554,-0.08 0.803,-0.2c0.247,-0.124 0.482,-0.25 0.67,-0.402c0.187,-0.155 0.353,-0.316 0.468,-0.469l0.201,-0.268l-0,1.139l1.071,-0l0,-8.302l-1.138,0l0,6.025l-0.201,0.335l-0.401,0.536c-0.177,0.176 -0.373,0.329 -0.603,0.468c-0.233,0.14 -0.471,0.201 -0.736,0.201c-0.287,0 -0.539,-0.086 -0.737,-0.201c-0.198,-0.115 -0.348,-0.219 -0.468,-0.401c-0.121,-0.182 -0.206,-0.434 -0.268,-0.67c-0.059,-0.238 -0.134,-0.482 -0.134,-0.736l0,-5.557l-1.138,0Zm91.381,0l-0,5.691c-0,0.364 0.035,0.731 0.134,1.071c0.099,0.343 0.257,0.613 0.468,0.87c0.206,0.26 0.477,0.512 0.804,0.67c0.324,0.16 0.688,0.2 1.138,0.2c0.297,0 0.621,-0.08 0.87,-0.2c0.246,-0.124 0.418,-0.25 0.603,-0.402c0.187,-0.155 0.353,-0.316 0.468,-0.469l0.268,-0.268l0,1.139l1.071,-0l0,-8.302l-1.138,0l0,6.025l-0.201,0.335l-0.401,0.536c-0.177,0.176 -0.37,0.329 -0.603,0.468c-0.23,0.14 -0.535,0.201 -0.803,0.201c-0.284,0 -0.474,-0.086 -0.67,-0.201c-0.2,-0.115 -0.412,-0.219 -0.535,-0.401c-0.121,-0.182 -0.209,-0.434 -0.268,-0.67c-0.062,-0.238 -0.067,-0.482 -0.067,-0.736l0,-5.557l-1.138,0Zm-67.481,0.737c0.342,-0 0.626,0.064 0.87,0.267c0.244,0.207 0.455,0.45 0.602,0.737c0.148,0.286 0.263,0.608 0.335,0.937c0.072,0.329 0.134,0.627 0.134,0.87l-3.816,0c0,-0.275 0.051,-0.613 0.134,-0.937c0.08,-0.327 0.18,-0.584 0.335,-0.87c0.155,-0.289 0.359,-0.544 0.602,-0.737c0.241,-0.19 0.485,-0.267 0.804,-0.267Zm23.096,-0c0.396,-0 0.742,0.171 1.004,0.401c0.265,0.231 0.504,0.472 0.67,0.804c0.16,0.329 0.267,0.707 0.334,1.071c0.065,0.364 0.067,0.661 0.067,0.937c0,0.329 -0.009,0.718 -0.067,1.138c-0.059,0.418 -0.174,0.766 -0.334,1.138c-0.159,0.367 -0.399,0.688 -0.67,0.937c-0.27,0.258 -0.597,0.402 -1.004,0.402c-0.418,0 -0.734,-0.144 -1.004,-0.402c-0.271,-0.249 -0.517,-0.57 -0.67,-0.937c-0.155,-0.372 -0.206,-0.72 -0.268,-1.138c-0.061,-0.42 -0.133,-0.809 -0.133,-1.138c-0,-0.295 0.061,-0.637 0.133,-1.004c0.073,-0.37 0.169,-0.678 0.335,-1.004c0.164,-0.322 0.405,-0.651 0.67,-0.871c0.265,-0.219 0.551,-0.334 0.937,-0.334Zm60.05,-0c0.338,-0 0.627,0.064 0.87,0.267c0.239,0.207 0.383,0.45 0.536,0.737c0.147,0.286 0.262,0.608 0.335,0.937c0.069,0.329 0.134,0.627 0.134,0.87l-3.816,0c-0,-0.275 0.051,-0.613 0.134,-0.937c0.083,-0.327 0.182,-0.584 0.334,-0.87c0.156,-0.289 0.359,-0.544 0.603,-0.737c0.244,-0.19 0.552,-0.267 0.87,-0.267Zm-94.259,3.28l-0,2.008l-0.268,0.536c-0.131,0.182 -0.276,0.378 -0.469,0.536c-0.193,0.16 -0.434,0.227 -0.669,0.334c-0.239,0.102 -0.482,0.201 -0.737,0.201c-0.404,-0 -0.723,-0.137 -1.004,-0.402c-0.281,-0.265 -0.401,-0.608 -0.401,-1.071c-0,-0.23 0.058,-0.468 0.2,-0.669c0.145,-0.198 0.319,-0.381 0.536,-0.536c0.214,-0.153 0.471,-0.292 0.736,-0.402c0.263,-0.112 0.506,-0.211 0.737,-0.267l1.339,-0.268l-0,0Zm-0.737,10.711l0,4.553l-0.268,-0.335l-0.401,-0.469c-0.174,-0.147 -0.378,-0.225 -0.603,-0.334c-0.225,-0.11 -0.482,-0.201 -0.736,-0.201c-0.474,-0 -0.881,0.16 -1.272,0.401c-0.391,0.241 -0.728,0.539 -1.004,0.938c-0.273,0.393 -0.52,0.851 -0.67,1.339c-0.15,0.49 -0.2,0.977 -0.2,1.472c-0,0.536 0.082,1.061 0.2,1.607c0.115,0.544 0.281,1.036 0.536,1.473c0.254,0.434 0.541,0.801 0.937,1.071c0.394,0.271 0.9,0.402 1.473,0.402c0.244,-0 0.501,-0.086 0.736,-0.201c0.239,-0.115 0.41,-0.246 0.603,-0.402c0.193,-0.152 0.348,-0.313 0.468,-0.468l0.268,-0.335l0,1.205l1.071,0l0,-11.715l-1.138,-0l0,-0.001Zm86.025,0l0,11.515c0.102,0.024 0.236,0.091 0.469,0.134c0.23,0.045 0.471,0.091 0.736,0.134c0.266,0.045 0.544,0.037 0.804,0.067c0.257,0.026 0.506,0.066 0.669,0.066c0.595,0 1.087,-0.126 1.54,-0.401c0.45,-0.273 0.833,-0.635 1.138,-1.071c0.311,-0.434 0.517,-0.932 0.67,-1.473c0.152,-0.538 0.267,-1.069 0.267,-1.607c0,-0.46 -0.085,-0.983 -0.2,-1.473c-0.115,-0.487 -0.284,-0.873 -0.536,-1.272c-0.254,-0.393 -0.605,-0.747 -1.004,-1.004c-0.394,-0.26 -0.844,-0.402 -1.406,-0.402c-0.252,0 -0.509,0.086 -0.736,0.201c-0.233,0.118 -0.421,0.249 -0.603,0.402l-0.469,0.469l-0.2,0.267l-0,-4.552l-1.138,-0l-0.001,0Zm-45.121,0.402c-0.22,-0 -0.394,0.12 -0.535,0.268c-0.145,0.147 -0.201,0.324 -0.201,0.535c-0,0.206 0.056,0.386 0.201,0.536c0.142,0.15 0.315,0.201 0.535,0.201c0.22,-0 0.386,-0.051 0.536,-0.201c0.147,-0.15 0.267,-0.329 0.267,-0.536c0,-0.211 -0.12,-0.388 -0.267,-0.535c-0.15,-0.148 -0.316,-0.268 -0.536,-0.268Zm2.812,-0c-0.22,-0 -0.394,0.12 -0.536,0.268c-0.142,0.147 -0.201,0.324 -0.201,0.535c0,0.206 0.059,0.386 0.201,0.536c0.142,0.15 0.316,0.201 0.536,0.201c0.222,-0 0.455,-0.051 0.602,-0.201c0.148,-0.15 0.201,-0.329 0.201,-0.536c0,-0.211 -0.054,-0.388 -0.201,-0.535c-0.147,-0.148 -0.38,-0.268 -0.602,-0.268Zm-65.071,0.268l-0,11.046l2.811,-0c0.517,-0 0.946,-0.057 1.406,-0.201c0.463,-0.142 0.927,-0.396 1.272,-0.669c0.348,-0.268 0.605,-0.541 0.803,-0.938c0.199,-0.396 0.268,-0.843 0.268,-1.339c0,-0.342 -0.075,-0.701 -0.2,-1.004c-0.129,-0.302 -0.255,-0.57 -0.469,-0.803c-0.217,-0.23 -0.455,-0.388 -0.737,-0.536c-0.278,-0.152 -0.626,-0.278 -0.937,-0.334c0.223,-0.067 0.501,-0.188 0.737,-0.335c0.238,-0.147 0.404,-0.319 0.602,-0.536c0.198,-0.214 0.402,-0.468 0.536,-0.736c0.131,-0.271 0.2,-0.506 0.2,-0.803c0,-0.474 -0.085,-0.924 -0.267,-1.272c-0.182,-0.346 -0.434,-0.646 -0.737,-0.871c-0.302,-0.225 -0.669,-0.356 -1.071,-0.468c-0.402,-0.11 -0.776,-0.201 -1.205,-0.201l-3.012,-0l-0,-0Zm46.46,-0l2.544,11.046l1.339,-0l2.343,-9.506l2.41,9.506l1.339,-0l2.544,-11.046l-1.205,-0l-2.009,9.506l-2.343,-9.506l-1.339,-0l-2.343,9.506l-2.008,-9.506l-1.272,-0Zm29.188,0.535l0,2.21l-1.339,-0l0,0.937l1.339,-0l0,5.757c0,0.233 0.072,0.45 0.134,0.67c0.059,0.222 0.131,0.433 0.268,0.602c0.139,0.171 0.308,0.303 0.535,0.402c0.225,0.099 0.541,0.134 0.871,0.134l0.334,-0.067l0.402,-0.067l0.335,-0.067l0.201,-0.067l-0.335,-0.937c-0.067,0.043 -0.214,0.075 -0.402,0.134c-0.187,0.061 -0.313,0.134 -0.468,0.134c-0.255,-0 -0.429,-0.121 -0.536,-0.335c-0.102,-0.214 -0.201,-0.439 -0.201,-0.669l0,-5.624l1.674,0l-0,-0.937l-1.674,-0l0,-2.209l-1.138,-0l0,-0.001Zm5.691,0l-0,2.21l-1.406,-0l-0,0.937l1.406,-0l-0,5.757c-0,0.233 0.004,0.45 0.066,0.67c0.062,0.222 0.134,0.433 0.268,0.602c0.139,0.171 0.311,0.303 0.536,0.402c0.227,0.099 0.541,0.134 0.87,0.134l0.335,-0.067l0.401,-0.067l0.335,-0.067l0.201,-0.067l-0.335,-0.937c-0.066,0.043 -0.147,0.075 -0.334,0.134c-0.188,0.061 -0.381,0.134 -0.536,0.134c-0.252,-0 -0.431,-0.121 -0.535,-0.335c-0.105,-0.214 -0.134,-0.439 -0.134,-0.669l-0,-5.624l1.606,0l0,-0.937l-1.606,-0l-0,-2.209l-1.138,-0l-0,-0.001Zm-80.134,0.469l1.807,-0c0.616,-0 1.087,0.136 1.473,0.469c0.383,0.326 0.602,0.779 0.602,1.338c0,0.287 -0.08,0.56 -0.2,0.804c-0.121,0.241 -0.271,0.495 -0.469,0.669c-0.198,0.177 -0.418,0.303 -0.669,0.402c-0.252,0.099 -0.528,0.134 -0.804,0.134l-1.74,-0l-0,-3.816l-0,-0Zm9.975,1.54c-0.287,-0 -0.59,0.067 -0.871,0.134c-0.281,0.066 -0.506,0.115 -0.736,0.2c-0.23,0.089 -0.437,0.191 -0.603,0.268l-0.334,0.134l0.334,0.937l0.335,-0.2c0.158,-0.086 0.337,-0.185 0.536,-0.268c0.198,-0.083 0.383,-0.134 0.602,-0.201c0.222,-0.067 0.429,-0.134 0.603,-0.134c0.594,0 1.049,0.23 1.339,0.603c0.291,0.366 0.401,0.8 0.401,1.339l0,0.535l-1.606,0.402c-0.322,0.067 -0.635,0.182 -1.005,0.334c-0.367,0.156 -0.691,0.316 -1.004,0.536c-0.313,0.22 -0.602,0.506 -0.803,0.803c-0.206,0.298 -0.335,0.584 -0.335,0.938c0,0.736 0.271,1.333 0.736,1.74c0.469,0.407 1.082,0.603 1.808,0.603c0.308,-0 0.6,-0.086 0.87,-0.201c0.271,-0.115 0.461,-0.246 0.67,-0.402c0.209,-0.15 0.409,-0.313 0.535,-0.468l0.201,-0.335l0,1.205l1.071,0l0,-5.757c0,-0.903 -0.235,-1.54 -0.736,-2.009c-0.501,-0.466 -1.17,-0.736 -2.009,-0.736l0.001,-0Zm16.468,-0c-0.506,-0 -0.961,0.128 -1.339,0.401c-0.38,0.276 -0.747,0.659 -1.004,1.072c-0.257,0.412 -0.404,0.851 -0.536,1.338c-0.131,0.485 -0.2,0.932 -0.2,1.339c-0,0.517 0.035,1.005 0.134,1.54c0.099,0.533 0.289,1.028 0.535,1.473c0.247,0.447 0.587,0.857 1.004,1.138c0.418,0.278 0.956,0.402 1.607,0.402c0.308,-0 0.589,-0.02 0.87,-0.067c0.282,-0.051 0.512,-0.134 0.737,-0.201c0.225,-0.064 0.442,-0.137 0.602,-0.201l0.335,-0.134l-0.335,-0.937l-0.401,0.201c-0.145,0.075 -0.276,0.136 -0.469,0.201c-0.193,0.069 -0.378,0.08 -0.603,0.134c-0.224,0.048 -0.503,0.066 -0.736,0.066c-0.386,0 -0.664,-0.053 -0.937,-0.267c-0.276,-0.215 -0.562,-0.544 -0.737,-0.871c-0.176,-0.321 -0.251,-0.629 -0.334,-1.004c-0.083,-0.372 -0.134,-0.742 -0.134,-1.071l4.954,0l-0,-0.402c-0,-0.442 -0.097,-0.921 -0.201,-1.406c-0.104,-0.484 -0.23,-0.929 -0.469,-1.338c-0.235,-0.407 -0.551,-0.74 -0.937,-1.005c-0.385,-0.262 -0.846,-0.401 -1.406,-0.401l0,-0Zm8.703,-0c-0.286,-0 -0.552,0.077 -0.803,0.2c-0.252,0.121 -0.539,0.252 -0.737,0.402c-0.195,0.155 -0.345,0.319 -0.468,0.469l-0.201,0.268l-0,-1.139l-1.071,0l-0,8.302l1.138,-0l-0,-5.958l0.201,-0.469l0.401,-0.469c0.182,-0.171 0.431,-0.348 0.67,-0.468c0.235,-0.118 0.482,-0.201 0.736,-0.201c0.265,-0 0.466,0.083 0.67,0.201c0.203,0.12 0.404,0.275 0.535,0.468c0.134,0.193 0.196,0.434 0.268,0.67c0.072,0.238 0.134,0.45 0.134,0.669l-0,5.557l1.138,-0l-0,-5.691c-0,-0.342 -0.094,-0.669 -0.201,-1.004c-0.109,-0.337 -0.251,-0.675 -0.468,-0.937c-0.212,-0.265 -0.474,-0.442 -0.804,-0.603c-0.332,-0.158 -0.701,-0.267 -1.138,-0.267l0,-0Zm35.95,-0c-0.287,-0 -0.578,0.075 -0.803,0.2c-0.225,0.118 -0.437,0.244 -0.603,0.402l-0.335,0.469l-0.2,0.268l-0,-1.139l-1.072,0l0,8.302l1.139,-0l-0,-5.958l0.133,-0.335l0.402,-0.536c0.153,-0.166 0.34,-0.273 0.536,-0.401c0.2,-0.124 0.383,-0.201 0.602,-0.201l0.335,0.067l0.335,0.134l0.334,-1.005l-0.334,-0.2l-0.469,-0.067l-0,-0Zm16.669,-0c-0.503,-0 -0.958,0.128 -1.339,0.401c-0.38,0.276 -0.677,0.659 -0.937,1.072c-0.257,0.412 -0.471,0.851 -0.602,1.338c-0.134,0.485 -0.201,0.932 -0.201,1.339c0,0.517 0.102,1.005 0.201,1.54c0.101,0.533 0.222,1.028 0.468,1.473c0.247,0.447 0.587,0.857 1.005,1.138c0.417,0.278 0.956,0.402 1.606,0.402c0.308,-0 0.589,-0.02 0.871,-0.067c0.281,-0.051 0.575,-0.134 0.803,-0.201c0.222,-0.064 0.377,-0.137 0.535,-0.201l0.335,-0.134l-0.335,-0.937l-0.334,0.201c-0.145,0.075 -0.343,0.136 -0.536,0.201c-0.19,0.069 -0.377,0.08 -0.602,0.134c-0.225,0.048 -0.437,0.066 -0.67,0.066c-0.383,0 -0.728,-0.053 -1.004,-0.267c-0.276,-0.215 -0.49,-0.544 -0.669,-0.871c-0.177,-0.321 -0.319,-0.629 -0.402,-1.004c-0.083,-0.372 -0.134,-0.742 -0.134,-1.071l4.954,0l-0,-0.402c-0,-0.442 -0.032,-0.921 -0.134,-1.406c-0.107,-0.484 -0.297,-0.929 -0.535,-1.338c-0.236,-0.407 -0.552,-0.74 -0.938,-1.005c-0.385,-0.262 -0.843,-0.401 -1.406,-0.401Zm8.503,-0c-0.308,-0 -0.557,0.077 -0.804,0.2c-0.249,0.121 -0.498,0.244 -0.669,0.402l-0.402,0.469l-0.201,0.268l0,-1.139l-1.071,0l0,8.302l1.138,-0l0,-5.958l0.201,-0.469l0.335,-0.469c0.169,-0.171 0.38,-0.348 0.602,-0.468c0.225,-0.118 0.472,-0.201 0.737,-0.201c0.297,-0 0.543,0.086 0.736,0.201c0.193,0.115 0.351,0.281 0.469,0.468c0.115,0.188 0.219,0.364 0.267,0.603c0.049,0.235 0.067,0.493 0.067,0.736l0,5.557l1.138,-0l0,-6.092l0.134,-0.469l0.402,-0.469c0.161,-0.147 0.375,-0.23 0.602,-0.334c0.225,-0.105 0.45,-0.201 0.737,-0.201c0.276,-0 0.538,0.086 0.736,0.201c0.198,0.115 0.351,0.281 0.469,0.468c0.112,0.188 0.209,0.364 0.268,0.603c0.051,0.235 0.066,0.493 0.066,0.736l0,5.557l1.139,-0l-0,-5.691c-0,-0.342 -0.051,-0.669 -0.134,-1.004c-0.081,-0.337 -0.206,-0.675 -0.402,-0.937c-0.198,-0.265 -0.479,-0.442 -0.803,-0.603c-0.324,-0.158 -0.731,-0.267 -1.205,-0.267c-0.33,-0 -0.603,0.077 -0.871,0.2c-0.27,0.121 -0.541,0.252 -0.736,0.402c-0.193,0.155 -0.287,0.319 -0.402,0.469l-0.268,0.267l-0.2,-0.334l-0.402,-0.469c-0.174,-0.147 -0.399,-0.225 -0.669,-0.335c-0.271,-0.11 -0.598,-0.2 -1.005,-0.2l0.001,-0Zm20.954,-0c-0.507,-0 -0.962,0.128 -1.339,0.401c-0.381,0.276 -0.678,0.659 -0.938,1.072c-0.257,0.412 -0.474,0.851 -0.602,1.338c-0.137,0.485 -0.201,0.932 -0.201,1.339c0,0.517 0.099,1.005 0.201,1.54c0.099,0.533 0.222,1.028 0.468,1.473c0.25,0.447 0.587,0.857 1.005,1.138c0.417,0.278 0.953,0.402 1.606,0.402c0.306,-0 0.587,-0.02 0.871,-0.067c0.278,-0.051 0.578,-0.134 0.803,-0.201c0.228,-0.064 0.375,-0.137 0.536,-0.201l0.334,-0.134l-0.334,-0.937l-0.335,0.201c-0.145,0.075 -0.279,0.136 -0.469,0.201c-0.193,0.069 -0.444,0.08 -0.669,0.134c-0.223,0.048 -0.439,0.066 -0.67,0.066c-0.383,0 -0.731,-0.053 -1.004,-0.267c-0.278,-0.215 -0.49,-0.544 -0.669,-0.871c-0.175,-0.321 -0.319,-0.629 -0.402,-1.004c-0.083,-0.372 -0.134,-0.742 -0.134,-1.071l4.954,0l0,-0.402c0,-0.442 -0.027,-0.921 -0.134,-1.406c-0.104,-0.484 -0.3,-0.929 -0.535,-1.338c-0.236,-0.407 -0.485,-0.74 -0.871,-1.005c-0.383,-0.262 -0.913,-0.401 -1.472,-0.401Zm8.368,-0c-0.287,-0 -0.579,0.075 -0.804,0.2c-0.227,0.118 -0.372,0.244 -0.535,0.402l-0.402,0.469l-0.201,0.268l0,-1.139l-1.071,0l0,8.302l1.138,-0l0,-5.958l0.201,-0.335l0.335,-0.536c0.153,-0.166 0.337,-0.273 0.535,-0.401c0.199,-0.124 0.383,-0.201 0.603,-0.201l0.402,0.067l0.267,0.134l0.335,-1.005l-0.335,-0.2l-0.468,-0.067l-0,-0Zm4.954,-0c-0.394,-0 -0.726,0.104 -1.071,0.267c-0.346,0.167 -0.678,0.399 -0.938,0.67c-0.257,0.273 -0.452,0.53 -0.602,0.87c-0.15,0.343 -0.201,0.718 -0.201,1.071c0,0.474 0.013,0.871 0.134,1.205c0.12,0.338 0.289,0.643 0.469,0.871c0.182,0.225 0.404,0.342 0.602,0.468c0.198,0.126 0.38,0.279 0.536,0.335l-0.335,0.067l-0.402,0.268l-0.268,0.334l-0.133,0.402c-0,0.198 0.042,0.391 0.133,0.536l0.335,0.334l0.335,0.201l0.335,0.067c-0.153,0.011 -0.362,0.107 -0.603,0.201c-0.244,0.091 -0.439,0.171 -0.669,0.334c-0.231,0.166 -0.434,0.421 -0.603,0.67c-0.171,0.246 -0.268,0.485 -0.268,0.803c0,0.33 0.038,0.659 0.201,0.937c0.166,0.282 0.455,0.531 0.737,0.737c0.289,0.203 0.602,0.351 1.004,0.468c0.404,0.121 0.811,0.201 1.272,0.201c0.519,0 0.98,-0.053 1.406,-0.201c0.42,-0.147 0.832,-0.361 1.138,-0.602c0.302,-0.241 0.5,-0.517 0.669,-0.803c0.164,-0.287 0.268,-0.584 0.268,-0.871c-0,-0.375 -0.08,-0.715 -0.268,-1.004c-0.187,-0.292 -0.485,-0.533 -0.803,-0.736c-0.322,-0.204 -0.654,-0.362 -1.071,-0.469c-0.418,-0.102 -0.887,-0.134 -1.339,-0.134c-0.351,0 -0.643,-0.112 -0.871,-0.268c-0.222,-0.155 -0.334,-0.294 -0.334,-0.535l0.134,-0.335l0.334,-0.201l0.402,-0.2l0.335,-0.067c0.407,-0 0.787,-0.043 1.138,-0.201c0.351,-0.161 0.688,-0.394 0.937,-0.669c0.257,-0.276 0.461,-0.635 0.603,-1.005c0.142,-0.369 0.2,-0.717 0.2,-1.138c0,-0.23 -0.01,-0.466 -0.067,-0.669c-0.053,-0.206 -0.128,-0.375 -0.2,-0.536l-0.201,-0.401l-0.201,-0.268l1.339,-0l0,-0.803l-2.343,-0c-0.099,-0.035 -0.244,-0.086 -0.469,-0.134c-0.227,-0.054 -0.482,-0.067 -0.736,-0.067l-0,-0Zm-70.963,0.2l0,5.691c0,0.364 0.035,0.731 0.134,1.071c0.099,0.343 0.26,0.613 0.469,0.87c0.209,0.26 0.482,0.442 0.803,0.603c0.327,0.16 0.683,0.268 1.138,0.268c0.295,-0 0.557,-0.081 0.804,-0.201c0.246,-0.121 0.482,-0.247 0.669,-0.402c0.187,-0.153 0.351,-0.313 0.469,-0.468l0.2,-0.335l0,1.205l1.071,-0l0,-8.301l-1.138,-0l0,5.958l-0.133,0.401l-0.469,0.536c-0.174,0.177 -0.372,0.332 -0.603,0.469c-0.23,0.139 -0.473,0.2 -0.736,0.2c-0.286,0 -0.538,-0.085 -0.736,-0.2c-0.198,-0.116 -0.346,-0.22 -0.469,-0.402c-0.12,-0.182 -0.209,-0.434 -0.268,-0.67c-0.061,-0.238 -0.067,-0.484 -0.067,-0.736l0,-5.556l-1.138,-0l0,-0.001Zm-33.138,0.67c0.34,-0 0.627,0.128 0.87,0.335c0.241,0.203 0.453,0.452 0.603,0.736c0.147,0.287 0.262,0.608 0.335,0.937c0.069,0.33 0.067,0.63 0.067,0.871l-3.816,-0c-0,-0.274 0.051,-0.611 0.134,-0.938c0.082,-0.321 0.179,-0.583 0.334,-0.87c0.153,-0.289 0.359,-0.544 0.603,-0.736c0.241,-0.193 0.551,-0.335 0.87,-0.335l0,-0Zm61.322,-0c0.34,-0 0.63,0.128 0.871,0.335c0.243,0.203 0.452,0.452 0.602,0.736c0.148,0.287 0.263,0.608 0.335,0.937c0.07,0.33 0.134,0.63 0.134,0.871l-3.816,-0c-0,-0.274 0.053,-0.611 0.134,-0.938c0.083,-0.321 0.182,-0.583 0.335,-0.87c0.155,-0.289 0.358,-0.544 0.602,-0.736c0.241,-0.193 0.482,-0.335 0.803,-0.335Zm29.523,-0c0.343,-0 0.627,0.128 0.871,0.335c0.243,0.203 0.385,0.452 0.535,0.736c0.148,0.287 0.263,0.608 0.335,0.937c0.072,0.33 0.134,0.63 0.134,0.871l-3.816,-0c0,-0.274 0.054,-0.611 0.134,-0.938c0.083,-0.321 0.182,-0.583 0.335,-0.87c0.155,-0.289 0.358,-0.544 0.602,-0.736c0.241,-0.193 0.552,-0.335 0.87,-0.335Zm13.256,-0c0.53,-0 0.972,0.168 1.272,0.535c0.305,0.37 0.468,0.868 0.468,1.473c0,0.252 -0.075,0.477 -0.134,0.737c-0.061,0.257 -0.133,0.525 -0.267,0.736c-0.14,0.206 -0.322,0.402 -0.536,0.536c-0.214,0.139 -0.495,0.2 -0.803,0.2c-0.316,0 -0.587,-0.085 -0.804,-0.2c-0.214,-0.116 -0.334,-0.271 -0.468,-0.469c-0.131,-0.198 -0.276,-0.399 -0.335,-0.669c-0.062,-0.268 -0.067,-0.573 -0.067,-0.871c0,-0.265 0.056,-0.495 0.134,-0.736c0.075,-0.244 0.19,-0.482 0.335,-0.67c0.144,-0.187 0.324,-0.358 0.535,-0.468c0.215,-0.11 0.407,-0.134 0.67,-0.134l-0,-0Zm-112.268,0.067c0.265,-0 0.514,0.061 0.736,0.2c0.22,0.145 0.372,0.349 0.536,0.536c0.166,0.187 0.302,0.351 0.401,0.536l0.201,0.401l0,3.548l-0.201,0.402l-0.401,0.536c-0.166,0.176 -0.375,0.337 -0.603,0.468c-0.225,0.134 -0.426,0.201 -0.669,0.201c-0.386,-0 -0.739,-0.105 -1.004,-0.335c-0.263,-0.23 -0.437,-0.517 -0.603,-0.87c-0.163,-0.351 -0.332,-0.777 -0.402,-1.205c-0.072,-0.429 -0.066,-0.819 -0.066,-1.205c-0,-0.442 0.034,-0.886 0.133,-1.272c0.099,-0.388 0.223,-0.715 0.402,-1.004c0.182,-0.295 0.415,-0.506 0.67,-0.67c0.251,-0.169 0.551,-0.267 0.87,-0.267l-0,-0Zm90.912,-0c0.362,-0 0.68,0.144 0.937,0.334c0.257,0.193 0.501,0.426 0.67,0.737c0.171,0.305 0.251,0.624 0.334,1.004c0.083,0.378 0.134,0.777 0.134,1.138c0,0.386 -0.024,0.777 -0.134,1.205c-0.107,0.429 -0.326,0.857 -0.535,1.205c-0.209,0.356 -0.437,0.64 -0.737,0.87c-0.305,0.233 -0.615,0.335 -1.004,0.335l-0.401,-0.067l-0.469,0l-0.402,-0.066l-0.267,-0.067l-0,-5.021l0.2,-0.402l0.402,-0.535c0.177,-0.169 0.391,-0.335 0.602,-0.469c0.217,-0.131 0.45,-0.201 0.67,-0.201l0,-0Zm-68.954,2.008l-0,1.071l3.481,0l0,-1.071l-3.481,0Zm-40.234,0.268l1.807,-0c0.694,-0 1.237,0.166 1.674,0.535c0.434,0.367 0.669,0.903 0.669,1.54c0,0.33 -0.08,0.595 -0.201,0.87c-0.12,0.276 -0.318,0.541 -0.535,0.737c-0.214,0.198 -0.45,0.359 -0.736,0.469c-0.287,0.109 -0.552,0.133 -0.871,0.133l-1.807,0l-0,-4.284l-0,-0Zm11.581,1.004l0,2.008l-0.268,0.536c-0.131,0.185 -0.275,0.308 -0.468,0.469c-0.193,0.158 -0.434,0.297 -0.67,0.401c-0.238,0.105 -0.482,0.201 -0.736,0.201c-0.407,0 -0.723,-0.137 -1.004,-0.402c-0.281,-0.262 -0.402,-0.674 -0.402,-1.138c0,-0.233 0.059,-0.407 0.201,-0.602c0.144,-0.198 0.321,-0.383 0.535,-0.536c0.217,-0.155 0.472,-0.289 0.737,-0.401c0.262,-0.108 0.506,-0.212 0.736,-0.268l1.339,-0.268l0,0Zm118.963,4.151c0.661,-0 1.24,0.123 1.673,0.401c0.437,0.282 0.67,0.64 0.67,1.072c-0,0.195 -0.086,0.412 -0.201,0.602c-0.118,0.193 -0.262,0.388 -0.469,0.536c-0.211,0.15 -0.46,0.238 -0.736,0.334c-0.273,0.091 -0.605,0.134 -0.937,0.134c-0.316,0 -0.603,-0.045 -0.87,-0.134c-0.263,-0.085 -0.482,-0.187 -0.67,-0.334c-0.185,-0.15 -0.297,-0.343 -0.402,-0.536c-0.101,-0.19 -0.2,-0.396 -0.2,-0.602c-0,-0.212 0.08,-0.424 0.2,-0.603c0.121,-0.182 0.271,-0.337 0.469,-0.469c0.196,-0.131 0.412,-0.19 0.669,-0.267c0.26,-0.078 0.531,-0.134 0.804,-0.134l-0,-0Z" style="fill:#5d6971;fill-rule:nonzero;"/><path id="path242" d="M252.368,80.99c-0.476,0 -0.854,0.094 -1.138,0.402c-0.281,0.3 -0.401,0.726 -0.401,1.205l-0,40.167c-0,0.477 0.12,0.833 0.401,1.139c0.279,0.299 0.662,0.468 1.138,0.468l10.913,0c2.993,0 5.668,-0.543 8.1,-1.673c2.437,-1.125 4.536,-2.737 6.226,-4.754c1.692,-2.019 3.015,-4.386 3.95,-7.163c0.932,-2.774 1.339,-5.784 1.339,-9.037c-0,-3.12 -0.448,-5.969 -1.406,-8.503c-0.954,-2.538 -2.3,-4.737 -4.017,-6.56c-1.711,-1.824 -3.792,-3.222 -6.226,-4.218c-2.429,-0.999 -5.082,-1.473 -8.033,-1.473l-10.846,0Zm39.498,0c-0.474,0 -0.854,0.094 -1.138,0.402c-0.278,0.3 -0.468,0.726 -0.468,1.205l-0,40.167c-0,0.477 0.19,0.833 0.468,1.139c0.284,0.299 0.664,0.468 1.138,0.468l4.486,0c0.474,0 0.841,-0.166 1.138,-0.468c0.302,-0.303 0.468,-0.662 0.468,-1.139l0,-17.874l14.996,-0l0,17.874c0,0.477 0.19,0.836 0.469,1.139c0.278,0.302 0.594,0.468 1.071,0.468l4.485,0c0.48,0 0.903,-0.169 1.205,-0.468c0.303,-0.306 0.469,-0.662 0.469,-1.139l-0,-40.167c-0,-0.479 -0.166,-0.905 -0.469,-1.205c-0.302,-0.308 -0.725,-0.402 -1.205,-0.402l-4.485,0c-0.477,0 -0.793,0.094 -1.071,0.402c-0.279,0.3 -0.469,0.726 -0.469,1.205l0,15.933l-14.996,0l0,-15.933c0,-0.479 -0.166,-0.905 -0.468,-1.205c-0.297,-0.308 -0.664,-0.402 -1.138,-0.402l-4.486,0Zm-33.406,6.025l4.887,0c1.827,0 3.452,0.381 4.888,1.139c1.432,0.763 2.664,1.778 3.682,3.079c1.02,1.301 1.818,2.884 2.343,4.686c0.519,1.802 0.736,3.741 0.736,5.825c0,2.431 -0.236,4.603 -0.803,6.627c-0.565,2.014 -1.414,3.811 -2.477,5.289c-1.066,1.475 -2.338,2.589 -3.816,3.414c-1.481,0.825 -3.133,1.272 -4.954,1.272l-4.486,0l0,-31.331Z" style="fill:#e2001a;fill-rule:nonzero;"/></g></svg>